<svg width="72" height="72" viewBox="0 0 72 72" fill="none" xmlns="http://www.w3.org/2000/svg">
<path d="M64 0H8C3.58172 0 0 3.58172 0 8V64C0 68.4183 3.58172 72 8 72H64C68.4183 72 72 68.4183 72 64V8C72 3.58172 68.4183 0 64 0ZM22 58C22 59.1046 21.1046 60 20 60H14C12.8954 60 12 59.1046 12 58V30C12 28.8954 12.8954 28 14 28H20C21.1046 28 22 28.8954 22 30V58ZM17 24C13.6863 24 11 21.3137 11 18C11 14.6863 13.6863 12 17 12C20.3137 12 23 14.6863 23 18C23 21.3137 20.3137 24 17 24ZM60 58C60 59.1046 59.1046 60 58 60H52C50.8954 60 50 59.1046 50 58V43C50 39.6863 47.3137 37 44 37C40.6863 37 38 39.6863 38 43V58C38 59.1046 37.1046 60 36 60H30C28.8954 60 28 59.1046 28 58V30C28 28.8954 28.8954 28 30 28H36C37.1046 28 38 28.8954 38 30V32.4C40.4331 28.6976 44.7081 26.637 49.12 27.04C55.4304 27.8181 60.1298 33.2431 60 39.6V58Z" fill="black"/>
</svg>
