<svg width="124" height="125" viewBox="0 0 124 125" fill="none" xmlns="http://www.w3.org/2000/svg">
<path d="M42.4468 80.4001L10.5905 27.3801C3.90662 37.2901 0 49.2276 0 62.0651C0 68.4451 0.967306 74.6026 2.75981 80.4001H42.4468Z" fill="black"/>
<path d="M55.832 35.75H117.929C109.954 18.74 94.5018 5.93749 75.8412 1.60999L55.832 35.75Z" fill="black"/>
<path d="M35.8974 54.965L67.9357 0.300001C65.9462 0.105001 63.9318 0 61.8925 0C43.4389 0 26.8576 8.15 15.5092 21.0375L35.8974 54.965Z" fill="black"/>
<path d="M48.804 122.177L68.4044 87.8999H5.63928C13.8714 105.852 30.3928 119.21 50.265 123.017L48.804 122.177Z" fill="black"/>
<path d="M81.2437 43.25L112.529 97.69C119.612 87.5975 123.788 75.315 123.788 62.065C123.788 55.5075 122.761 49.1875 120.871 43.25H81.2437Z" fill="white"/>
<path d="M87.6209 69.3726L56.4552 123.878C58.2477 124.035 60.0602 124.13 61.8926 124.13C79.9273 124.13 96.1795 116.353 107.503 103.97L87.6209 69.3726Z" fill="white"/>
<path d="M122.972 68.3149H96.7954L81.837 42.0649H120.479C124.468 47.0649 123.803 61.6483 122.972 68.3149Z" fill="black"/>
</svg>
