<svg width="34" height="34" viewBox="0 0 34 34" fill="none" xmlns="http://www.w3.org/2000/svg">
<path d="M29.7071 0.639526H4.13348C2.11577 0.639526 0.480103 2.2752 0.480103 4.2929V29.8665C0.480103 31.8842 2.11577 33.5199 4.13348 33.5199H29.7071C31.7248 33.5199 33.3605 31.8842 33.3605 29.8665V4.2929C33.3605 2.2752 31.7248 0.639526 29.7071 0.639526ZM10.5269 27.1265C10.5269 27.6309 10.118 28.0398 9.61354 28.0398H6.87351C6.36908 28.0398 5.96016 27.6309 5.96016 27.1265V14.3397C5.96016 13.8353 6.36908 13.4263 6.87351 13.4263H9.61354C10.118 13.4263 10.5269 13.8353 10.5269 14.3397V27.1265ZM8.24352 11.5997C6.73025 11.5997 5.50349 10.3729 5.50349 8.85962C5.50349 7.34634 6.73025 6.11959 8.24352 6.11959C9.7568 6.11959 10.9836 7.34634 10.9836 8.85962C10.9836 10.3729 9.7568 11.5997 8.24352 11.5997ZM27.8804 27.1265C27.8804 27.6309 27.4715 28.0398 26.9671 28.0398H24.227C23.7226 28.0398 23.3137 27.6309 23.3137 27.1265V20.2764C23.3137 18.7631 22.0869 17.5364 20.5737 17.5364C19.0604 17.5364 17.8336 18.7631 17.8336 20.2764V27.1265C17.8336 27.6309 17.4247 28.0398 16.9203 28.0398H14.1803C13.6758 28.0398 13.2669 27.6309 13.2669 27.1265V14.3397C13.2669 13.8353 13.6758 13.4263 14.1803 13.4263H16.9203C17.4247 13.4263 17.8336 13.8353 17.8336 14.3397V15.4357C18.9447 13.7449 20.897 12.8039 22.9118 12.9879C25.7936 13.3433 27.9397 15.8207 27.8804 18.7237V27.1265Z" fill="white"/>
</svg>
