<svg width="34" height="34" viewBox="0 0 34 34" fill="none" xmlns="http://www.w3.org/2000/svg">
<path d="M33.2822 4.2929V29.8665C33.2822 31.8842 31.6466 33.5199 29.6289 33.5199H22.7788C22.2744 33.5199 21.8654 33.111 21.8654 32.6066V21.6464H26.1399C26.574 21.6465 26.9481 21.3411 27.035 20.9158L27.6926 17.6277C27.7197 17.4949 27.6864 17.3569 27.6017 17.251C27.517 17.1452 27.3897 17.0824 27.2542 17.0797H21.8654V11.143C21.8654 10.8908 22.0699 10.6863 22.3221 10.6863H26.8888C27.3932 10.6863 27.8022 10.2774 27.8022 9.77296V7.03293C27.8022 6.52851 27.3932 6.11959 26.8888 6.11959H22.3221C19.2955 6.11959 16.842 8.5731 16.842 11.5997V17.0797H14.5952C14.0908 17.0797 13.6819 17.4886 13.6819 17.9931V20.7331C13.6819 21.2375 14.0908 21.6464 14.5952 21.6464H16.842V32.6066C16.842 33.111 16.4331 33.5199 15.9287 33.5199H4.05523C2.03753 33.5199 0.401855 31.8842 0.401855 29.8665V4.2929C0.401855 2.2752 2.03753 0.639526 4.05523 0.639526H29.6289C31.6466 0.639526 33.2822 2.2752 33.2822 4.2929Z" fill="white"/>
</svg>
