<svg width="34" height="34" viewBox="0 0 34 34" fill="none" xmlns="http://www.w3.org/2000/svg">
<path d="M24.2009 0.639526H9.58742C4.54316 0.639526 0.453979 4.72871 0.453979 9.77296V24.3865C0.453979 29.4307 4.54316 33.5199 9.58742 33.5199H24.2009C29.2452 33.5199 33.3344 29.4307 33.3344 24.3865V9.77296C33.3344 4.72871 29.2452 0.639526 24.2009 0.639526ZM30.1377 24.3865C30.1276 27.6611 27.4755 30.3132 24.2009 30.3232H9.58742C6.31281 30.3132 3.66071 27.6611 3.65068 24.3865V9.77296C3.66071 6.49836 6.31281 3.84626 9.58742 3.83623H24.2009C27.4755 3.84626 30.1276 6.49836 30.1377 9.77296V24.3865ZM27.3976 8.40295C27.3976 9.4118 26.5798 10.2296 25.5709 10.2296C24.5621 10.2296 23.7442 9.4118 23.7442 8.40295C23.7442 7.3941 24.5621 6.57626 25.5709 6.57626C26.5798 6.57626 27.3976 7.3941 27.3976 8.40295ZM16.8942 8.85962C12.3543 8.85962 8.67407 12.5399 8.67407 17.0797C8.67407 21.6195 12.3543 25.2998 16.8942 25.2998C21.434 25.2998 25.1143 21.6195 25.1143 17.0797C25.1191 14.8981 24.2546 12.8045 22.712 11.2619C21.1694 9.71924 19.0758 8.85476 16.8942 8.85962ZM16.8942 22.1031C14.1198 22.1031 11.8708 19.8541 11.8708 17.0797C11.8708 14.3054 14.1198 12.0563 16.8942 12.0563C19.6685 12.0563 21.9176 14.3054 21.9176 17.0797C21.9176 19.8541 19.6685 22.1031 16.8942 22.1031Z" fill="white"/>
</svg>
