<svg width="35" height="35" viewBox="0 0 35 35" fill="none" xmlns="http://www.w3.org/2000/svg">
<path d="M32.4792 10.4124H3.41656V30.3415H32.4792V10.4124Z" fill="black"/>
<path fill-rule="evenodd" clip-rule="evenodd" d="M30.8352 0.694325C31.9303 0.69423 32.9814 1.12551 33.7609 1.89476C34.5405 2.66401 34.9856 3.70931 35 4.80437V30.5789C35 31.6835 34.5612 32.7429 33.7802 33.5239C32.9991 34.305 31.9398 34.7438 30.8352 34.7438H5.0606C3.95602 34.7438 2.89667 34.305 2.11561 33.5239C1.33455 32.7429 0.895752 31.6835 0.895752 30.5789V4.80437C0.895752 3.69979 1.33455 2.64042 2.11561 1.85936C2.89667 1.0783 3.95602 0.639526 5.0606 0.639526L30.8352 0.694325ZM31.237 22.7242C31.3135 21.8352 31.2394 20.9397 31.0178 20.0755C30.8141 19.2681 30.4609 18.506 29.9766 17.8287C29.4965 17.1717 28.8714 16.6341 28.1499 16.2577C27.3147 15.8775 26.3989 15.7082 25.483 15.7645C24.6376 15.7577 23.7993 15.9192 23.0169 16.2395C22.3256 16.5583 21.7046 17.0116 21.1903 17.5729C20.6395 18.1338 20.2159 18.8067 19.9481 19.5458C19.6519 20.3402 19.5033 21.1821 19.5097 22.03C19.4928 22.895 19.6352 23.7557 19.9298 24.5691C20.1994 25.299 20.6089 25.9691 21.1355 26.5419C21.6769 27.0993 22.3307 27.5352 23.0535 27.8206C23.859 28.123 24.714 28.2717 25.5743 28.259C26.7845 28.3043 27.9806 27.9862 29.0085 27.3457C30.0599 26.6099 30.8119 25.5208 31.1274 24.2769H28.1682C28.0031 24.7184 27.6943 25.0915 27.2914 25.3363C26.7118 25.6931 26.0366 25.8634 25.3572 25.8242C24.6777 25.785 24.0266 25.5382 23.4919 25.1171C22.9406 24.4803 22.6531 23.6571 22.6881 22.8155L31.237 22.7242ZM12.5683 27.8754C13.2895 27.8766 14.0079 27.7845 14.7055 27.6015C15.3612 27.4277 15.98 27.1369 16.5322 26.7429C17.0794 26.3636 17.5248 25.8555 17.8291 25.2633C18.1672 24.5965 18.3306 23.8549 18.3041 23.1078C18.3333 22.1771 18.0784 21.2596 17.5734 20.4773C17.0259 19.7236 16.2304 19.1869 15.3266 18.9612C15.9895 18.664 16.5628 18.1979 16.9889 17.6095C17.387 16.9967 17.5849 16.2754 17.5551 15.5453C17.5755 14.8792 17.4443 14.2171 17.1715 13.609C16.9318 13.1102 16.5668 12.6823 16.1121 12.3669C15.6068 12.0364 15.0423 11.8068 14.4498 11.691C13.747 11.5448 13.0302 11.4774 12.3125 11.4901H4.65873V27.9302L12.5683 27.8754ZM12.1481 20.5687C12.7975 20.5499 13.4363 20.7352 13.9748 21.0984C14.2307 21.324 14.4289 21.6075 14.5529 21.9253C14.6768 22.2431 14.7229 22.5859 14.6872 22.9251C14.6987 23.2887 14.6301 23.6504 14.4863 23.9846C14.3559 24.2593 14.1458 24.4884 13.8835 24.6422C13.629 24.8121 13.3435 24.9301 13.0432 24.9892C12.7134 25.0627 12.3765 25.0994 12.0385 25.0988H8.31211V20.587L12.1481 20.5687ZM27.2366 18.742C26.9965 18.5076 26.7098 18.3262 26.3951 18.2098C26.0804 18.0934 25.7447 18.0444 25.4099 18.0661C24.9616 18.0492 24.5161 18.1433 24.113 18.3401C23.7957 18.499 23.5156 18.7231 23.2909 18.9977C23.0781 19.2376 22.9275 19.5262 22.8525 19.838C22.7737 20.0871 22.7246 20.3446 22.7064 20.6052H28.0038C27.9582 19.9314 27.6954 19.2904 27.2549 18.7785L27.2366 18.742ZM11.6001 14.2118C11.9128 14.2133 12.2247 14.2439 12.5318 14.3032C12.8161 14.3473 13.0892 14.4466 13.3355 14.5954C13.5697 14.7264 13.7602 14.9234 13.8835 15.1617C14.0317 15.449 14.1011 15.7704 14.0844 16.0933C14.1032 16.3739 14.0569 16.6551 13.9492 16.9149C13.8415 17.1747 13.6752 17.4062 13.4634 17.5912C13.0057 17.9151 12.4524 18.0759 11.8924 18.0479H8.31211V14.2118H11.6001ZM28.6614 14.2118V12.6043H22.0123V14.2118H28.6614Z" fill="white"/>
</svg>
