<svg width="38" height="32" viewBox="0 0 38 32" fill="none" xmlns="http://www.w3.org/2000/svg">
<path d="M37.0802 4.96675C36.1375 6.22415 34.9981 7.32098 33.7059 8.21491C33.7059 8.54337 33.7059 8.87184 33.7059 9.21855C33.7162 15.1834 31.3336 20.903 27.0921 25.095C22.8507 29.287 17.1052 31.6008 11.1437 31.5177C7.69723 31.5292 4.29489 30.7423 1.20321 29.2185C1.03651 29.1457 0.928986 28.9807 0.929619 28.7987V28.598C0.929619 28.336 1.14194 28.1236 1.40384 28.1236C4.79164 28.0119 8.05858 26.8373 10.7424 24.7659C7.67601 24.7042 4.91701 22.8876 3.64729 20.0944C3.58316 19.9418 3.60313 19.7669 3.69999 19.6327C3.79685 19.4985 3.95659 19.4245 4.12152 19.4375C5.05347 19.5312 5.99474 19.4444 6.89391 19.182C3.50883 18.4793 0.965326 15.6691 0.60131 12.2295C0.588372 12.0645 0.662316 11.9047 0.796428 11.8078C0.93054 11.7108 1.10543 11.6909 1.25793 11.755C2.16634 12.1559 3.14696 12.367 4.13976 12.3755C1.17363 10.4287 -0.107545 6.72573 1.02082 3.36092C1.13729 3.03395 1.41712 2.79241 1.75747 2.72506C2.09782 2.65771 2.44848 2.77447 2.6806 3.03245C6.68322 7.29243 12.1829 9.83092 18.02 10.1127C17.8705 9.51609 17.7969 8.90297 17.8011 8.2879C17.8557 5.06279 19.8512 2.18979 22.8534 1.01394C25.8556 -0.161913 29.2703 0.592095 31.4989 2.92296C33.0181 2.63356 34.4867 2.12329 35.8581 1.40837C35.9586 1.34565 36.086 1.34565 36.1864 1.40837C36.2491 1.50888 36.2491 1.63633 36.1864 1.73684C35.5222 3.258 34.3999 4.53385 32.9763 5.38645C34.223 5.24188 35.4477 4.9478 36.6242 4.51055C36.7232 4.44312 36.8534 4.44312 36.9525 4.51055C37.0355 4.54851 37.0975 4.62111 37.1221 4.70901C37.1467 4.79692 37.1314 4.8912 37.0802 4.96675Z" fill="white"/>
</svg>
