<svg width="72" height="72" viewBox="0 0 72 72" fill="none" xmlns="http://www.w3.org/2000/svg">
<path d="M52 0H20C8.9543 0 0 8.9543 0 20V52C0 63.0457 8.9543 72 20 72H52C63.0457 72 72 63.0457 72 52V20C72 8.9543 63.0457 0 52 0ZM65 52C64.978 59.1706 59.1706 64.978 52 65H20C12.8294 64.978 7.02196 59.1706 7 52V20C7.02196 12.8294 12.8294 7.02196 20 7H52C59.1706 7.02196 64.978 12.8294 65 20V52ZM59 17C59 19.2091 57.2091 21 55 21C52.7909 21 51 19.2091 51 17C51 14.7909 52.7909 13 55 13C57.2091 13 59 14.7909 59 17ZM36 18C26.0589 18 18 26.0589 18 36C18 45.9411 26.0589 54 36 54C45.9411 54 54 45.9411 54 36C54.0107 31.2228 52.1176 26.6383 48.7397 23.2603C45.3617 19.8824 40.7772 17.9893 36 18ZM36 47C29.9249 47 25 42.0751 25 36C25 29.9249 29.9249 25 36 25C42.0751 25 47 29.9249 47 36C47 42.0751 42.0751 47 36 47Z" fill="black"/>
</svg>
