<svg width="71" height="72" viewBox="0 0 71 72" fill="none" xmlns="http://www.w3.org/2000/svg">
<path fill-rule="evenodd" clip-rule="evenodd" d="M62.3294 0.115689C64.6094 0.115489 66.7976 1.026 68.4205 2.65002C70.0433 4.27403 70.97 6.48084 71 8.7927V63.2072C71 65.5392 70.0865 67.7757 68.4604 69.4246C66.8344 71.0736 64.629 72 62.3294 72H8.6706C6.37102 72 4.16561 71.0736 2.53956 69.4246C0.913508 67.7757 0 65.5392 0 63.2072V8.7927C0 6.46073 0.913508 4.22424 2.53956 2.57528C4.16561 0.92633 6.37102 0 8.6706 0L62.3294 0.115689ZM63.166 46.6245C63.3253 44.7478 63.171 42.8572 62.7097 41.0326C62.2856 39.328 61.5504 37.7192 60.542 36.2892C59.5424 34.9022 58.2412 33.7673 56.7392 32.9726C55.0003 32.1701 53.0938 31.8126 51.1869 31.9314C49.427 31.9171 47.6818 32.258 46.053 32.9341C44.6137 33.6073 43.321 34.5642 42.2501 35.7493C41.1035 36.9334 40.2216 38.354 39.6642 39.9143C39.0474 41.5916 38.7381 43.369 38.7515 45.159C38.7163 46.9851 39.0128 48.8023 39.6261 50.5195C40.1873 52.0604 41.0399 53.4751 42.1361 54.6845C43.2633 55.8612 44.6244 56.7815 46.1291 57.384C47.806 58.0223 49.5861 58.3362 51.3771 58.3095C53.8966 58.4051 56.3867 57.7335 58.5265 56.3813C60.7154 54.8278 62.2809 52.5286 62.9379 49.9025H56.7772C56.4334 50.8346 55.7905 51.6224 54.9518 52.1392C53.7451 52.8924 52.3396 53.252 50.925 53.1692C49.5105 53.0864 48.155 52.5654 47.0418 51.6764C45.894 50.332 45.2955 48.594 45.3685 46.8173L63.166 46.6245ZM24.3005 57.4997C25.802 57.5022 27.2975 57.3078 28.7499 56.9213C30.1149 56.5545 31.4032 55.9404 32.5528 55.1087C33.692 54.308 34.6193 53.2352 35.2528 51.985C35.9565 50.5773 36.2967 49.0116 36.2416 47.4343C36.3023 45.4695 35.7717 43.5325 34.7204 41.881C33.5806 40.2898 31.9245 39.1566 30.0429 38.6802C31.423 38.0528 32.6164 37.0687 33.5035 35.8265C34.3323 34.5329 34.7443 33.01 34.6824 31.4687C34.7247 30.0623 34.4517 28.6646 33.8838 27.3808C33.3848 26.3278 32.6248 25.4243 31.6781 24.7585C30.6262 24.0608 29.451 23.5761 28.2175 23.3315C26.7545 23.0229 25.2621 22.8807 23.7681 22.9073H7.83396V57.6154L24.3005 57.4997ZM23.4258 42.0739C24.7776 42.0342 26.1076 42.4253 27.2287 43.1923C27.7614 43.6684 28.1741 44.267 28.4321 44.9379C28.6901 45.6088 28.786 46.3326 28.7118 47.0488C28.7356 47.8164 28.5928 48.5799 28.2935 49.2854C28.022 49.8654 27.5847 50.349 27.0386 50.6737C26.5088 51.0326 25.9143 51.2816 25.2892 51.4064C24.6026 51.5615 23.9011 51.6391 23.1976 51.6378H15.4397V42.1125L23.4258 42.0739ZM54.8377 38.2174C54.3379 37.7225 53.7411 37.3397 53.0859 37.0939C52.4307 36.848 51.7319 36.7447 51.0348 36.7906C50.1015 36.7548 49.174 36.9535 48.3348 37.369C47.6743 37.7045 47.0912 38.1775 46.6235 38.7573C46.1803 39.2637 45.8669 39.873 45.7108 40.5313C45.5466 41.0572 45.4445 41.6008 45.4065 42.151H56.4349C56.34 40.7284 55.7929 39.3753 54.8757 38.2945L54.8377 38.2174ZM22.2849 28.6534C22.9359 28.6565 23.5852 28.7212 24.2244 28.8463C24.8165 28.9395 25.3849 29.149 25.8977 29.4632C26.3852 29.7398 26.7819 30.1556 27.0386 30.6588C27.3472 31.2653 27.4915 31.944 27.4569 32.6255C27.496 33.218 27.3997 33.8117 27.1754 34.3602C26.9511 34.9087 26.6049 35.3973 26.1639 35.7879C25.211 36.4717 24.0593 36.8112 22.8934 36.752H15.4397V28.6534H22.2849ZM57.804 28.6534V25.2597H43.9614V28.6534H57.804Z" fill="black"/>
</svg>
