<svg width="105" height="69" viewBox="0 0 105 69" fill="none" xmlns="http://www.w3.org/2000/svg">
<path d="M96.3854 0.026322H59.064C57.2296 0.0284818 55.4576 0.695379 54.0739 1.90439C52.6902 3.11341 51.7877 4.78327 51.5324 6.60694C51.4084 7.18361 51.3454 7.77182 51.3445 8.36178V18.8908C51.3445 26.7305 41.5886 30.2687 36.6157 24.2342L19.1469 3.02928C18.3675 2.08142 17.3891 1.31831 16.2815 0.794603C15.174 0.270895 13.9648 -0.000450927 12.7405 5.62497e-07H8.32254C7.22857 0.000864283 6.14547 0.218076 5.13513 0.63923C4.12478 1.06038 3.20698 1.67723 2.43413 2.45454C1.66128 3.23184 1.04853 4.15438 0.630883 5.16946C0.213231 6.18454 -0.00114368 7.27228 4.58855e-06 8.37055V60.6294C-0.0017348 62.8473 0.874054 64.9751 2.43477 66.5448C3.99549 68.1145 6.11333 68.9977 8.32254 69C10.5318 68.9977 12.6496 68.1145 14.2103 66.5448C15.771 64.9751 16.6468 62.8473 16.6451 60.6294V50.0478C16.6451 42.2015 26.4097 38.6677 31.3783 44.7131L48.8471 65.9641C49.6274 66.913 50.6068 67.6771 51.7154 68.2019C52.824 68.7267 54.0343 68.9992 55.26 69H59.6649C61.8741 68.9977 63.9919 68.1145 65.5526 66.5448C67.1134 64.9751 67.9891 62.8473 67.9874 60.6294V54.3559V54.2638C67.9863 53.2588 68.1823 52.2633 68.5643 51.3344C68.9464 50.4054 69.507 49.561 70.2141 48.8496C70.9211 48.1381 71.7609 47.5734 72.6853 47.1877C73.6098 46.802 74.6009 46.6029 75.602 46.6018H90.4292C92.4307 46.5678 94.3388 45.7457 95.7422 44.3127C97.1457 42.8797 97.9321 40.9505 97.9321 38.9408C97.9321 36.9312 97.1457 35.002 95.7422 33.569C94.3388 32.136 92.4307 31.3139 90.4292 31.2799H75.6064C74.6053 31.2787 73.6142 31.0796 72.6897 30.694C71.7652 30.3083 70.9255 29.7436 70.2184 29.0321C69.5113 28.3206 68.9508 27.4763 68.5687 26.5473C68.1867 25.6183 67.9906 24.6229 67.9918 23.6178V23.1111C67.9906 22.1061 68.1867 21.1107 68.5687 20.1817C68.9508 19.2527 69.5113 18.4084 70.2184 17.6969C70.9255 16.9854 71.7652 16.4207 72.6897 16.035C73.6142 15.6494 74.6053 15.4503 75.6064 15.4491H96.3854C98.4074 15.4468 100.346 14.6383 101.774 13.2014C103.202 11.7646 104.004 9.81704 104.002 7.78707V7.68617C104.003 6.68113 103.807 5.68575 103.424 4.75689C103.042 3.82802 102.481 2.98385 101.774 2.27256C101.067 1.56128 100.227 0.99682 99.3022 0.611409C98.3777 0.225999 97.3865 0.0271858 96.3854 0.026322Z" fill="black"/>
</svg>
